# xmcd CD database file
#
# Track frame offsets:
#	150
#	14548
#	33043
#	54538
#	70215
#	88260
#	114060
#	134888
#	153608
#	170533
#	191263
#	212835
#	234388
#
# Disc length: 3329 seconds
#
# Revision: 0
# Processed by: cddbd v1.5.1PL0 Copyright (c) Steve Scherf et al.
# Submitted via: CDex 1.51
#
DISCID=b00cff0d
DTITLE=南　佳孝 - ROMANTICO
DYEAR=2004
DGENRE=R&B
TTITLE0=遥かなディスタンス
TTITLE1=Travelin'Man
TTITLE2=海を見ている
TTITLE3=サンクチュアリ
TTITLE4=Moonlight　Splash
TTITLE5=Maria　Maria
TTITLE6=Step To Heaven
TTITLE7=雨の魚
TTITLE8=ホテルに棲む女
TTITLE9=恋は柘榴か無花果
TTITLE10=ぼくらの夢
TTITLE11=ソバカスのある少女
TTITLE12=Sail Away
EXTD=YEAR: 2004
EXTT0=
EXTT1=
EXTT2=
EXTT3=
EXTT4=
EXTT5=
EXTT6=
EXTT7=
EXTT8=
EXTT9=
EXTT10=
EXTT11=
EXTT12=
PLAYORDER=
